<svg width="15" height="14" viewBox="0 0 15 14" fill="none" xmlns="http://www.w3.org/2000/svg">
<path d="M0.5 1.5C0.5 1.10218 0.658035 0.720644 0.93934 0.43934C1.22064 0.158035 1.60218 0 2 0H5C5.39782 0 5.77936 0.158035 6.06066 0.43934C6.34196 0.720644 6.5 1.10218 6.5 1.5V4.5C6.5 4.89782 6.34196 5.27936 6.06066 5.56066C5.77936 5.84196 5.39782 6 5 6H2C1.60218 6 1.22064 5.84196 0.93934 5.56066C0.658035 5.27936 0.5 4.89782 0.5 4.5V1.5ZM8.5 1.5C8.5 1.10218 8.65804 0.720644 8.93934 0.43934C9.22064 0.158035 9.60218 0 10 0H13C13.3978 0 13.7794 0.158035 14.0607 0.43934C14.342 0.720644 14.5 1.10218 14.5 1.5V4.5C14.5 4.89782 14.342 5.27936 14.0607 5.56066C13.7794 5.84196 13.3978 6 13 6H10C9.60218 6 9.22064 5.84196 8.93934 5.56066C8.65804 5.27936 8.5 4.89782 8.5 4.5V1.5ZM0.5 9.5C0.5 9.10218 0.658035 8.72064 0.93934 8.43934C1.22064 8.15804 1.60218 8 2 8H5C5.39782 8 5.77936 8.15804 6.06066 8.43934C6.34196 8.72064 6.5 9.10218 6.5 9.5V12.5C6.5 12.8978 6.34196 13.2794 6.06066 13.5607C5.77936 13.842 5.39782 14 5 14H2C1.60218 14 1.22064 13.842 0.93934 13.5607C0.658035 13.2794 0.5 12.8978 0.5 12.5V9.5ZM8.5 9.5C8.5 9.10218 8.65804 8.72064 8.93934 8.43934C9.22064 8.15804 9.60218 8 10 8H13C13.3978 8 13.7794 8.15804 14.0607 8.43934C14.342 8.72064 14.5 9.10218 14.5 9.5V12.5C14.5 12.8978 14.342 13.2794 14.0607 13.5607C13.7794 13.842 13.3978 14 13 14H10C9.60218 14 9.22064 13.842 8.93934 13.5607C8.65804 13.2794 8.5 12.8978 8.5 12.5V9.5Z" fill="#252B42"/>
</svg>
